<svg xmlns="http://www.w3.org/2000/svg" viewBox="0 0 32 32" width="32" height="32">
  <defs>
    <linearGradient id="bg" x1="0%" y1="0%" x2="100%" y2="100%">
      <stop offset="0%" style="stop-color:#1f2937;stop-opacity:1" />
      <stop offset="100%" style="stop-color:#374151;stop-opacity:1" />
    </linearGradient>
    <linearGradient id="accent" x1="0%" y1="0%" x2="100%" y2="100%">
      <stop offset="0%" style="stop-color:#3b82f6;stop-opacity:1" />
      <stop offset="100%" style="stop-color:#1d4ed8;stop-opacity:1" />
    </linearGradient>
  </defs>
  
  <!-- Background -->
  <rect width="32" height="32" rx="6" fill="url(#bg)" stroke="#4f46e5" stroke-width="1"/>
  
  <!-- Dashboard grid -->
  <rect x="4" y="4" width="10" height="6" rx="1" fill="url(#accent)" opacity="0.8"/>
  <rect x="16" y="4" width="12" height="6" rx="1" fill="#10b981" opacity="0.7"/>
  <rect x="4" y="12" width="12" height="8" rx="1" fill="#f59e0b" opacity="0.7"/>
  <rect x="18" y="12" width="10" height="8" rx="1" fill="#ef4444" opacity="0.7"/>
  <rect x="4" y="22" width="24" height="6" rx="1" fill="url(#accent)" opacity="0.6"/>
  
  <!-- Monitoring lines/charts -->
  <path d="M6 8 L8 6 L10 7 L12 5" stroke="#ffffff" stroke-width="1" fill="none" opacity="0.9"/>
  <path d="M18 8 L20 6 L22 7 L24 5 L26 6" stroke="#ffffff" stroke-width="1" fill="none" opacity="0.9"/>
  <circle cx="8" cy="16" r="2" fill="#ffffff" opacity="0.8"/>
  <circle cx="12" cy="16" r="1.5" fill="#ffffff" opacity="0.6"/>
  <rect x="20" y="15" width="6" height="2" rx="1" fill="#ffffff" opacity="0.7"/>
  <rect x="20" y="17.5" width="4" height="1.5" rx="0.5" fill="#ffffff" opacity="0.5"/>
</svg>
